<svg xmlns="http://www.w3.org/2000/svg" viewBox="0 0 640 280" role="img" aria-labelledby="t">
  <title id="t">Þ§ToDon§·¸∏</title>
  <rect width="640" height="280" fill="#fafafa"/>
  <rect x="48" y="36" width="544" height="48" rx="6" fill="#ffffff" stroke="#e0e0e0"/>
  <rect x="64" y="52" width="140" height="16" rx="3" fill="#e3f2fd"/>
  <rect x="220" y="52" width="120" height="16" rx="3" fill="#f3e5f5"/>
  <rect x="360" y="50" width="80" height="20" rx="4" fill="#1976d2" opacity="0.15"/>
  <rect x="48" y="100" width="544" height="140" rx="8" fill="#ffffff" stroke="#e0e0e0"/>
  <rect x="72" y="124" width="20" height="20" rx="2" stroke="#757575" fill="#fff"/>
  <path d="M78 132 L86 140 L98 126" stroke="#4caf50" stroke-width="2" fill="none"/>
  <rect x="108" y="122" width="280" height="12" rx="2" fill="#424242" opacity="0.8"/>
  <rect x="108" y="142" width="200" height="8" rx="2" fill="#9e9e9e"/>
  <rect x="108" y="156" width="64" height="20" rx="10" fill="#e8f5e9" stroke="#81c784"/>
  <rect x="72" y="188" width="20" height="20" rx="2" stroke="#bdbdbd" fill="#fff"/>
  <rect x="108" y="186" width="240" height="12" rx="2" fill="#bdbdbd"/>
  <text x="320" y="24" font-family="system-ui,sans-serif" font-size="12" fill="#424242" text-anchor="middle" font-weight="600">Þ§ToDo’£Îø˚·‚˚;œºäÿQ</text>
</svg>
