<svg xmlns="http://www.w3.org/2000/svg" viewBox="0 0 640 320" role="img" aria-labelledby="t">
  <title id="t">×í¸§¯Èh¿¹¯n¢Â</title>
  <rect width="640" height="320" fill="#fafafa"/>
  <rect x="40" y="40" width="200" height="100" rx="8" fill="#e3f2fd" stroke="#1976d2" stroke-width="2"/>
  <rect x="60" y="58" width="140" height="12" rx="2" fill="#1976d2" opacity="0.7"/>
  <rect x="60" y="78" width="100" height="8" rx="2" fill="#90caf9"/>
  <rect x="60" y="94" width="120" height="8" rx="2" fill="#90caf9"/>
  <rect x="60" y="110" width="80" height="8" rx="2" fill="#90caf9"/>
  <path d="M240 90 L300 90" stroke="#757575" stroke-width="2" marker-end="url(#a)"/>
  <defs>
    <marker id="a" markerWidth="8" markerHeight="8" refX="6" refY="4" orient="auto">
      <path d="M0 0 L8 4 L0 8 Z" fill="#757575"/>
    </marker>
  </defs>
  <rect x="300" y="40" width="300" height="240" rx="8" fill="#ffffff" stroke="#e0e0e0" stroke-width="2"/>
  <rect x="320" y="60" width="120" height="36" rx="4" fill="#fff8e1" stroke="#ffc107"/>
  <rect x="452" y="60" width="120" height="36" rx="4" fill="#e8f5e9" stroke="#4caf50"/>
  <rect x="320" y="108" width="120" height="36" rx="4" fill="#fce4ec" stroke="#e91e63"/>
  <rect x="452" y="108" width="120" height="36" rx="4" fill="#e3f2fd" stroke="#2196f3"/>
  <rect x="320" y="180" width="252" height="80" rx="4" fill="#f5f5f5" stroke="#bdbdbd" stroke-dasharray="4 3"/>
  <rect x="336" y="196" width="80" height="48" rx="3" fill="#eeeeee"/>
  <rect x="428" y="196" width="80" height="48" rx="3" fill="#eeeeee"/>
  <text x="140" y="175" font-family="system-ui,sans-serif" font-size="11" fill="#424242" text-anchor="middle">×í¸§¯È</text>
  <text x="450" y="32" font-family="system-ui,sans-serif" font-size="11" fill="#424242" text-anchor="middle">¿¹¯û³áóÈû;Ï</text>
</svg>
