<svg xmlns="http://www.w3.org/2000/svg" viewBox="0 0 640 360" role="img" aria-labelledby="t">
  <title id="t">;bņżó”╚né§¾</title>
  <defs>
    <linearGradient id="g" x1="0%" y1="0%" x2="100%" y2="100%">
      <stop offset="0%" style="stop-color:#1976d2;stop-opacity:1" />
      <stop offset="100%" style="stop-color:#1565c0;stop-opacity:1" />
    </linearGradient>
  </defs>
  <rect width="640" height="360" fill="#f5f7fa"/>
  <rect x="0" y="0" width="640" height="44" fill="url(#g)"/>
  <rect x="8" y="10" width="120" height="24" rx="4" fill="#ffffff" opacity="0.95"/>
  <circle cx="600" cy="22" r="14" fill="#ffffff" opacity="0.35"/>
  <circle cx="568" cy="22" r="14" fill="#ffffff" opacity="0.35"/>
  <rect x="0" y="44" width="140" height="316" fill="#ffffff" stroke="#e0e0e0"/>
  <rect x="16" y="64" width="108" height="10" rx="2" fill="#e3f2fd"/>
  <rect x="16" y="84" width="108" height="10" rx="2" fill="#bbdefb"/>
  <rect x="16" y="104" width="108" height="10" rx="2" fill="#e3f2fd"/>
  <rect x="16" y="124" width="108" height="10" rx="2" fill="#e3f2fd"/>
  <rect x="16" y="144" width="108" height="10" rx="2" fill="#e3f2fd"/>
  <rect x="152" y="56" width="472" height="292" rx="8" fill="#ffffff" stroke="#e0e0e0"/>
  <rect x="172" y="76" width="200" height="14" rx="3" fill="#1976d2" opacity="0.85"/>
  <rect x="172" y="102" width="432" height="80" rx="4" fill="#fafafa" stroke="#e0e0e0"/>
  <rect x="172" y="194" width="210" height="60" rx="4" fill="#e8f5e9" stroke="#c8e6c9"/>
  <rect x="394" y="194" width="210" height="60" rx="4" fill="#fff3e0" stroke="#ffe0b2"/>
  <text x="320" y="34" font-family="system-ui,sans-serif" font-size="11" fill="#fff" text-anchor="middle" opacity="0.9">óūĻą³HELP¹JkeŖ¹µ³Č³	</text>
  <text x="70" y="200" font-family="system-ui,sans-serif" font-size="10" fill="#757575" text-anchor="middle" transform="rotate(-90 70 200)">Ąż╔ß╦Õ³</text>
  <text x="388" y="280" font-family="system-ui,sans-serif" font-size="10" fill="#757575" text-anchor="middle">ßż¾│¾Ų¾─</text>
</svg>
